<svg xmlns="http://www.w3.org/2000/svg" width="17" height="13" viewBox="0 0 17 13" fill="none">
  <g clip-path="url(#clip0_23_865)">
    <path d="M16.8176 5.60265C16.8176 5.60265 16.8176 5.70619 16.7946 5.76372C16.7601 5.90177 16.6681 6.01681 16.553 6.08584L16.5185 6.10885L8.81057 11.1133C8.638 11.2283 8.40791 11.2398 8.22384 11.1363C8.03977 11.0327 7.92473 10.8372 7.92473 10.6301V8.0646C6.77429 7.85752 3.40349 7.73097 1.28668 12.6549C1.19464 12.8619 0.987561 13 0.757472 13C0.722959 13 0.676941 13 0.642428 13C0.377826 12.9425 0.182251 12.7009 0.182251 12.4248C0.182251 8.77788 1.13712 6.12035 3.03535 4.53274C4.41588 3.41681 6.15305 2.8646 7.92473 2.96814V0.57522C7.92473 0.368141 8.03977 0.172565 8.22384 0.0690255C8.40791 -0.0345144 8.638 -0.0230099 8.81057 0.0920343L16.507 5.09646C16.507 5.09646 16.5876 5.14248 16.6221 5.17699C16.6681 5.2115 16.7026 5.24602 16.7256 5.29203C16.7601 5.33805 16.7831 5.38407 16.7946 5.44159C16.8061 5.49911 16.8176 5.54513 16.8176 5.60265Z" fill="black"/>
  </g>
  <defs>
    <clipPath id="clip0_23_865">
      <rect width="16.6354" height="13" fill="white" transform="translate(0.182251)"/>
    </clipPath>
  </defs>
</svg>