<svg xmlns="http://www.w3.org/2000/svg" width="21" height="15" viewBox="0 0 21 15" fill="none">
  <g clip-path="url(#clip0_23_1203)">
    <path d="M15.2992 12.289C15.3309 12.4771 15.2765 12.6651 15.1539 12.8119C15.0314 12.9587 14.8544 13.0413 14.6638 13.0413C14.3325 13.0413 14.0602 12.789 14.0239 12.4587L13.6473 8.8211C13.6336 8.66514 13.679 8.51376 13.7834 8.39449C13.8878 8.27982 14.033 8.2156 14.1873 8.2156C14.4551 8.2156 14.682 8.40826 14.7274 8.67431L15.2992 12.289Z" fill="black"/>
    <path d="M11.0513 8.7477C11.0423 8.44954 10.8017 8.2156 10.5068 8.2156C10.2118 8.2156 9.95763 8.44954 9.95309 8.7477L9.84871 12.3716C9.84417 12.5505 9.91225 12.7156 10.0302 12.844C10.1528 12.9679 10.3162 13.0413 10.4931 13.0413H10.5068C10.6837 13.0413 10.8471 12.9679 10.9697 12.844C11.0922 12.7156 11.1557 12.5505 11.1512 12.3716L11.0513 8.7477ZM11.0513 8.7477C11.0423 8.44954 10.8017 8.2156 10.5068 8.2156C10.2118 8.2156 9.95763 8.44954 9.95309 8.7477L9.84871 12.3716C9.84417 12.5505 9.91225 12.7156 10.0302 12.844C10.1528 12.9679 10.3162 13.0413 10.4931 13.0413H10.5068C10.6837 13.0413 10.8471 12.9679 10.9697 12.844C11.0922 12.7156 11.1557 12.5505 11.1512 12.3716L11.0513 8.7477ZM19.3336 6.69266H1.67081C1.67081 6.69266 1.62997 6.69266 1.61182 6.68807L2.82353 13.1101C3.02775 14.2064 3.97624 15 5.07903 15H15.939C17.0464 15 17.9948 14.2018 18.1991 13.1055L19.3926 6.68807C19.3926 6.68807 19.3518 6.69266 19.3336 6.69266ZM7.42983 12.5046C7.37084 13.0734 6.89886 13.5 6.33612 13.5C6.0139 13.5 5.70984 13.3578 5.50108 13.1101C5.29233 12.8624 5.20156 12.5367 5.25602 12.2156L5.82784 8.6055C5.90499 8.11009 6.31797 7.75688 6.81263 7.75688C7.094 7.75688 7.3663 7.87615 7.55237 8.08715C7.74297 8.30275 7.83374 8.58257 7.80651 8.86697L7.42983 12.5046ZM11.2964 13.1605C11.0877 13.3807 10.8063 13.5 10.5068 13.5H10.4931C10.1936 13.5 9.91679 13.3807 9.70803 13.1651C9.49927 12.945 9.39035 12.6605 9.39489 12.3578L9.49927 8.73394C9.51288 8.18349 9.94855 7.75688 10.4931 7.75688C11.0377 7.75688 11.4916 8.18349 11.5052 8.73394L11.605 12.3578C11.6141 12.6605 11.5006 12.945 11.2964 13.1605ZM15.4988 13.1101C15.2901 13.3578 14.986 13.5 14.6638 13.5C14.101 13.5 13.6336 13.0734 13.5746 12.5046L13.1979 8.86697C13.1662 8.58257 13.2569 8.29816 13.4475 8.08715C13.6381 7.87615 13.9059 7.75688 14.1873 7.75688C14.6819 7.75688 15.0949 8.11009 15.1721 8.60092L15.7484 12.2156C15.7983 12.5367 15.7076 12.8624 15.4988 13.1101ZM10.5068 8.2156C10.1982 8.2156 9.95763 8.44954 9.95309 8.7477L9.84871 12.3716C9.84417 12.5505 9.91225 12.7156 10.0302 12.844C10.1528 12.9679 10.3162 13.0413 10.4931 13.0413H10.5068C10.6837 13.0413 10.8471 12.9679 10.9697 12.844C11.0922 12.7156 11.1557 12.5505 11.1512 12.3716L11.0513 8.7477C11.0423 8.44954 10.8017 8.2156 10.5068 8.2156ZM6.81263 8.2156C6.54488 8.2156 6.31797 8.40826 6.27712 8.67431L5.70077 12.289C5.67354 12.4771 5.72346 12.6651 5.84599 12.8119C5.96852 12.9587 6.15005 13.0413 6.33612 13.0413C6.66741 13.0413 6.94424 12.789 6.97601 12.4587L7.35268 8.8211C7.37084 8.66514 7.32092 8.51376 7.21654 8.39449C7.11216 8.27981 6.96693 8.2156 6.81263 8.2156Z" fill="black"/>
    <path d="M19.3291 6.23395H1.67086C1.02644 6.23395 0.5 5.70642 0.5 5.05046C0.5 4.39908 1.0219 3.86697 1.67086 3.86697H19.3337C19.9781 3.86697 20.5045 4.3945 20.5045 5.05046C20.5045 5.70184 19.9826 6.23395 19.3337 6.23395H19.3291Z" fill="black"/>
    <path d="M7.72034 0.637614L6.3861 3.41284H5.41492L6.93523 0.252293C7.03961 0.0321096 7.29828 -0.0596335 7.51612 0.0458711C7.73395 0.151376 7.82472 0.417431 7.72034 0.637614Z" fill="black"/>
    <path d="M15.5897 3.41284H14.614L13.2797 0.637614C13.1753 0.417431 13.2661 0.151376 13.4839 0.0458711C13.7018 -0.0596335 13.965 0.0321096 14.0694 0.252293L15.5897 3.41284Z" fill="black"/>
  </g>
  <defs>
    <clipPath id="clip0_23_1203">
      <rect width="20" height="15" fill="white" transform="translate(0.5)"/>
    </clipPath>
  </defs>
</svg>