<svg xmlns="http://www.w3.org/2000/svg" width="101" height="86" viewBox="0 0 101 86" fill="none">
  <path d="M93.8125 0.671875H7.1875C5.35999 0.671875 3.60734 1.39785 2.31509 2.69009C1.02285 3.98234 0.296875 5.73499 0.296875 7.5625V78.4375C0.296875 80.265 1.02285 82.0177 2.31509 83.3099C3.60734 84.6021 5.35999 85.3281 7.1875 85.3281H93.8125C95.64 85.3281 97.3927 84.6021 98.6849 83.3099C99.9771 82.0177 100.703 80.265 100.703 78.4375V7.5625C100.703 5.73499 99.9771 3.98234 98.6849 2.69009C97.3927 1.39785 95.64 0.671875 93.8125 0.671875ZM7.1875 6.57812H93.8125C94.0736 6.57812 94.324 6.68183 94.5086 6.86644C94.6932 7.05105 94.7969 7.30143 94.7969 7.5625V63.4258L78.9977 47.6266C77.6991 46.3461 75.9487 45.6282 74.125 45.6282C72.3013 45.6282 70.5509 46.3461 69.2523 47.6266L59.0641 57.8148C58.9765 57.9103 58.87 57.9865 58.7514 58.0387C58.6327 58.0908 58.5046 58.1178 58.375 58.1178C58.2454 58.1178 58.1173 58.0908 57.9986 58.0387C57.88 57.9865 57.7735 57.9103 57.6859 57.8148L35.6852 35.8141C34.3866 34.5336 32.6362 33.8157 30.8125 33.8157C28.9888 33.8157 27.2384 34.5336 25.9398 35.8141L6.20312 55.5508V7.5625C6.20312 7.30143 6.30683 7.05105 6.49144 6.86644C6.67605 6.68183 6.92643 6.57812 7.1875 6.57812ZM93.8125 79.4219H7.1875C6.92643 79.4219 6.67605 79.3182 6.49144 79.1336C6.30683 78.949 6.20312 78.6986 6.20312 78.4375V63.918L30.1234 39.9977C30.211 39.9022 30.3175 39.826 30.4361 39.7738C30.5548 39.7217 30.6829 39.6947 30.8125 39.6947C30.9421 39.6947 31.0702 39.7217 31.1889 39.7738C31.3075 39.826 31.414 39.9022 31.5016 39.9977L53.5023 61.9984C54.8009 63.2789 56.5513 63.9968 58.375 63.9968C60.1987 63.9968 61.9491 63.2789 63.2477 61.9984L73.4359 51.8102C73.5235 51.7147 73.63 51.6385 73.7486 51.5863C73.8673 51.5342 73.9954 51.5072 74.125 51.5072C74.2546 51.5072 74.3827 51.5342 74.5014 51.5863C74.62 51.6385 74.7265 51.7147 74.8141 51.8102L94.7969 71.793V78.4375C94.7969 78.6986 94.6932 78.949 94.5086 79.1336C94.324 79.3182 94.0736 79.4219 93.8125 79.4219ZM60.7867 32.7133C60.3283 32.255 59.966 31.7099 59.7209 31.1098C59.4758 30.5098 59.3529 29.8669 59.3594 29.2188C59.3594 27.9134 59.8779 26.6615 60.801 25.7385C61.724 24.8154 62.9759 24.2969 64.2812 24.2969C65.5866 24.2969 66.8385 24.8154 67.7615 25.7385C68.6846 26.6615 69.2031 27.9134 69.2031 29.2188C69.2031 30.5241 68.6846 31.776 67.7615 32.699C66.8385 33.6221 65.5866 34.1406 64.2812 34.1406C63.6331 34.1471 62.9902 34.0242 62.3902 33.7791C61.7901 33.534 61.245 33.1717 60.7867 32.7133Z" fill="#4A69E2"/>
</svg>